{
  "source": "C:\\Users\\Peter\\Desktop\\stuff\\MIUN\\quantitative_research\\video_compression\\videos\\BVI-HD\\BVI-HD_CDVL_videos\\ORIG\\BridgeRiver_1920x1080_30fps.mp4",
  "output": "C:\\Users\\Peter\\Desktop\\stuff\\MIUN\\quantitative_research\\video_compression\\compressed_videos\\BVI-HD\\hevc\\1.5\\BridgeRiver_1920x1080_30fps_hevc.mp4",
  "codec": "hevc",
  "ok": "Input #0, mov,mp4,m4a,3gp,3g2,mj2, from 'C:\\Users\\Peter\\Desktop\\stuff\\MIUN\\quantitative_research\\video_compression\\videos\\BVI-HD\\BVI-HD_CDVL_videos\\ORIG\\BridgeRiver_1920x1080_30fps.mp4':\n  Metadata:\n    major_brand     : isom\n    minor_version   : 512\n    compatible_brands: isomiso2avc1mp41\n    encoder         : Lavf54.28.101\n  Duration: 00:00:05.00, start: 0.000000, bitrate: 274913 kb/s\n  Stream #0:0[0x1](und): Video: h264 (High 4:4:4 Predictive) (avc1 / 0x31637661), yuv420p(progressive), 1920x1080, 274910 kb/s, 30 fps, 30 tbr, 30 tbn (default)\n    Metadata:\n      handler_name    : VideoHandler\n      vendor_id       : [0][0][0][0]\n[out#0/mp4 @ 0000022525c61700] Codec AVOption b:a (set bitrate (in bits/s)) has not been used for any stream. The most likely reason is either wrong type (e.g. a video option with no video streams) or that it is a private option of some decoder which was not actually used for any stream.\nStream mapping:\n  Stream #0:0 -> #0:0 (h264 (native) -> hevc (libx265))\nPress [q] to stop, [?] for help\n[libx265 @ 0000022526790180] Unknown option: \"aq-mode.\nx265 [info]: HEVC encoder version 4.1+190-8f11c33ac\nx265 [info]: build info [Windows][GCC 15.1.0][64 bit] 10bit\nx265 [info]: using cpu capabilities: MMX2 SSE2Fast LZCNT SSSE3 SSE4.2 AVX FMA3 BMI2 AVX2\nx265 [info]: Main 10 profile, Level-4 (Main tier)\nx265 [info]: Thread pool created using 12 threads\nx265 [info]: Slices                              : 1\nx265 [info]: frame threads / pool features       : 3 / wpp(17 rows)\nx265 [info]: Coding QT: max CU size, min CU size : 64 / 8\nx265 [info]: Residual QT: max TU size, max depth : 32 / 1 inter / 1 intra\nx265 [info]: ME / range / subpel / merge         : star / 57 / 3 / 3\nx265 [info]: Keyframe min / max / scenecut / bias  : 25 / 250 / 40 / 5.00 \nx265 [info]: Lookahead / bframes / badapt        : 25 / 4 / 2\nx265 [info]: b-pyramid / weightp / weightb       : 1 / 1 / 0\nx265 [info]: References / ref-limit  cu / depth  : 4 / on / on\nx265 [info]: AQ: mode / str / qg-size / cu-tree  : 2 / 1.0 / 32 / 1\nx265 [info]: Rate Control / qCompress            : ABR-1500 kbps / 0.60\nx265 [info]: VBV/HRD buffer / max-rate / init    : 1500 / 1500 / 0.750\nx265 [info]: tools: rect limit-modes rd=4 psy-rd=2.00 rdoq=2 psy-rdoq=1.00\nx265 [info]: tools: rskip mode=1 signhide tmvp strong-intra-smoothing lslices=4\nx265 [info]: tools: deblock sao dhdr10-info\nOutput #0, mp4, to 'C:\\Users\\Peter\\Desktop\\stuff\\MIUN\\quantitative_research\\video_compression\\compressed_videos\\BVI-HD\\hevc\\1.5\\BridgeRiver_1920x1080_30fps_hevc.mp4':\n  Metadata:\n    major_brand     : isom\n    minor_version   : 512\n    compatible_brands: isomiso2avc1mp41\n    encoder         : Lavf62.3.100\n  Stream #0:0(und): Video: hevc (hev1 / 0x31766568), yuv420p10le(tv, progressive), 1920x1080, q=2-31, 1500 kb/s, 30 fps, 15360 tbn (default)\n    Metadata:\n      encoder         : Lavc62.11.100 libx265\n      handler_name    : VideoHandler\n      vendor_id       : [0][0][0][0]\n    Side data:\n      cpb: bitrate max/min/avg: 1500000/0/1500000 buffer size: 1500000 vbv_delay: N/A\nframe=    0 fps=0.0 q=0.0 size=       0KiB time=N/A bitrate=N/A speed=N/A elapsed=0:00:00.50    \nframe=    0 fps=0.0 q=0.0 size=       0KiB time=N/A bitrate=N/A speed=N/A elapsed=0:00:01.03    \nframe=    0 fps=0.0 q=0.0 size=       0KiB time=N/A bitrate=N/A speed=N/A elapsed=0:00:01.57    \nframe=    0 fps=0.0 q=0.0 size=       0KiB time=N/A bitrate=N/A speed=N/A elapsed=0:00:02.09    \nframe=    0 fps=0.0 q=0.0 size=       0KiB time=N/A bitrate=N/A speed=N/A elapsed=0:00:02.60    \nframe=    0 fps=0.0 q=0.0 size=       0KiB time=N/A bitrate=N/A speed=N/A elapsed=0:00:03.13    \nframe=    0 fps=0.0 q=0.0 size=       0KiB time=N/A bitrate=N/A speed=N/A elapsed=0:00:03.64    \nframe=    0 fps=0.0 q=0.0 size=       0KiB time=N/A bitrate=N/A speed=N/A elapsed=0:00:04.16    \nframe=    0 fps=0.0 q=0.0 size=       0KiB time=N/A bitrate=N/A speed=N/A elapsed=0:00:04.69    \nframe=    0 fps=0.0 q=0.0 size=       0KiB time=N/A bitrate=N/A speed=N/A elapsed=0:00:05.21    \nframe=    0 fps=0.0 q=0.0 size=       0KiB time=N/A bitrate=N/A speed=N/A elapsed=0:00:05.72    \nframe=    0 fps=0.0 q=0.0 size=       0KiB time=N/A bitrate=N/A speed=N/A elapsed=0:00:06.27    \nframe=    0 fps=0.0 q=0.0 size=       0KiB time=N/A bitrate=N/A speed=N/A elapsed=0:00:06.79    \nframe=    0 fps=0.0 q=0.0 size=       0KiB time=N/A bitrate=N/A speed=N/A elapsed=0:00:07.33    \nframe=    1 fps=0.1 q=42.9 size=       0KiB time=-00:00:00.03 bitrate=N/A speed=N/A elapsed=0:00:07.90    \nframe=    2 fps=0.2 q=49.9 size=       0KiB time=00:00:00.00 bitrate=N/A speed=   0x elapsed=0:00:08.45    \nframe=    3 fps=0.3 q=51.0 size=       0KiB time=00:00:00.03 bitrate=  10.6kbits/s speed=0.00371x elapsed=0:00:08.98    \nframe=    4 fps=0.4 q=51.0 size=       0KiB time=00:00:00.06 bitrate=   5.3kbits/s speed=0.00702x elapsed=0:00:09.49    \nframe=    4 fps=0.4 q=51.0 size=       0KiB time=00:00:00.06 bitrate=   5.3kbits/s speed=0.00664x elapsed=0:00:10.04    \nframe=    5 fps=0.5 q=51.0 size=       0KiB time=00:00:00.10 bitrate=   3.5kbits/s speed=0.00946x elapsed=0:00:10.56    \nframe=    5 fps=0.5 q=51.0 size=       0KiB time=00:00:00.10 bitrate=   3.5kbits/s speed=0.00903x elapsed=0:00:11.07    \nframe=    6 fps=0.5 q=51.0 size=       0KiB time=00:00:00.13 bitrate=   2.6kbits/s speed=0.0115x elapsed=0:00:11.59    \nframe=    6 fps=0.5 q=51.0 size=       0KiB time=00:00:00.13 bitrate=   2.6kbits/s speed=0.011x elapsed=0:00:12.11    \nframe=    6 fps=0.5 q=51.0 size=       0KiB time=00:00:00.13 bitrate=   2.6kbits/s speed=0.0106x elapsed=0:00:12.63    \nframe=    7 fps=0.5 q=44.6 size=       0KiB time=00:00:00.16 bitrate=   2.1kbits/s speed=0.0127x elapsed=0:00:13.14    \nframe=    8 fps=0.6 q=49.0 size=       0KiB time=00:00:00.20 bitrate=   1.8kbits/s speed=0.0146x elapsed=0:00:13.66    \nframe=    9 fps=0.6 q=48.0 size=       0KiB time=00:00:00.23 bitrate=   1.5kbits/s speed=0.0164x elapsed=0:00:14.20    \nframe=    9 fps=0.6 q=48.0 size=       0KiB time=00:00:00.23 bitrate=   1.5kbits/s speed=0.0158x elapsed=0:00:14.73    \nframe=    9 fps=0.6 q=48.0 size=       0KiB time=00:00:00.23 bitrate=   1.5kbits/s speed=0.0153x elapsed=0:00:15.28    \nframe=   10 fps=0.6 q=48.0 size=       0KiB time=00:00:00.26 bitrate=   1.3kbits/s speed=0.0168x elapsed=0:00:15.82    \nframe=   10 fps=0.6 q=48.0 size=       0KiB time=00:00:00.26 bitrate=   1.3kbits/s speed=0.0163x elapsed=0:00:16.35    \nframe=   10 fps=0.6 q=48.0 size=       0KiB time=00:00:00.26 bitrate=   1.3kbits/s speed=0.0158x elapsed=0:00:16.90    \nframe=   11 fps=0.6 q=47.6 size=       0KiB time=00:00:00.30 bitrate=   1.2kbits/s speed=0.0172x elapsed=0:00:17.42    \nframe=   11 fps=0.6 q=47.6 size=       0KiB time=00:00:00.30 bitrate=   1.2kbits/s speed=0.0167x elapsed=0:00:17.94    \nframe=   12 fps=0.6 q=42.0 size=       0KiB time=00:00:00.33 bitrate=   1.1kbits/s speed=0.018x elapsed=0:00:18.48    \nframe=   12 fps=0.6 q=42.0 size=       0KiB time=00:00:00.33 bitrate=   1.1kbits/s speed=0.0175x elapsed=0:00:18.99    \nframe=   13 fps=0.7 q=47.1 size=       0KiB time=00:00:00.36 bitrate=   1.0kbits/s speed=0.0188x elapsed=0:00:19.52    \nframe=   13 fps=0.6 q=47.1 size=       0KiB time=00:00:00.36 bitrate=   1.0kbits/s speed=0.0183x elapsed=0:00:20.04    \nframe=   13 fps=0.6 q=47.1 size=       0KiB time=00:00:00.36 bitrate=   1.0kbits/s speed=0.0178x elapsed=0:00:20.56    \nframe=   14 fps=0.7 q=48.2 size=       0KiB time=00:00:00.40 bitrate=   0.9kbits/s speed=0.019x elapsed=0:00:21.07    \nframe=   14 fps=0.6 q=48.2 size=       0KiB time=00:00:00.40 bitrate=   0.9kbits/s speed=0.0185x elapsed=0:00:21.62    \nframe=   15 fps=0.7 q=49.0 size=       0KiB time=00:00:00.43 bitrate=   0.8kbits/s speed=0.0196x elapsed=0:00:22.14    \nframe=   15 fps=0.7 q=49.0 size=       0KiB time=00:00:00.43 bitrate=   0.8kbits/s speed=0.0191x elapsed=0:00:22.65    \nframe=   15 fps=0.6 q=49.0 size=       0KiB time=00:00:00.43 bitrate=   0.8kbits/s speed=0.0187x elapsed=0:00:23.18    \nframe=   16 fps=0.7 q=48.0 size=       0KiB time=00:00:00.46 bitrate=   0.8kbits/s speed=0.0197x elapsed=0:00:23.71    \nframe=   16 fps=0.7 q=48.0 size=       0KiB time=00:00:00.46 bitrate=   0.8kbits/s speed=0.0192x elapsed=0:00:24.24    \nframe=   17 fps=0.7 q=42.9 size=       0KiB time=00:00:00.50 bitrate=   0.7kbits/s speed=0.0202x elapsed=0:00:24.75    \nframe=   17 fps=0.7 q=42.9 size=       0KiB time=00:00:00.50 bitrate=   0.7kbits/s speed=0.0198x elapsed=0:00:25.27    \nframe=   17 fps=0.7 q=42.9 size=       0KiB time=00:00:00.50 bitrate=   0.7kbits/s speed=0.0194x elapsed=0:00:25.81    \nframe=   18 fps=0.7 q=46.8 size=       0KiB time=00:00:00.53 bitrate=   0.7kbits/s speed=0.0202x elapsed=0:00:26.36    \nframe=   18 fps=0.7 q=46.8 size=       0KiB time=00:00:00.53 bitrate=   0.7kbits/s speed=0.0198x elapsed=0:00:26.90    \nframe=   18 fps=0.7 q=46.8 size=       0KiB time=00:00:00.53 bitrate=   0.7kbits/s speed=0.0194x elapsed=0:00:27.42    \nframe=   19 fps=0.7 q=47.9 size=       0KiB time=00:00:00.56 bitrate=   0.6kbits/s speed=0.0203x elapsed=0:00:27.93    \nframe=   20 fps=0.7 q=47.9 size=       0KiB time=00:00:00.60 bitrate=   0.6kbits/s speed=0.0211x elapsed=0:00:28.45    \nframe=   20 fps=0.7 q=47.9 size=       0KiB time=00:00:00.60 bitrate=   0.6kbits/s speed=0.0207x elapsed=0:00:28.97    \nframe=   20 fps=0.7 q=47.9 size=       0KiB time=00:00:00.60 bitrate=   0.6kbits/s speed=0.0203x elapsed=0:00:29.49    \nframe=   20 fps=0.7 q=47.9 size=       0KiB time=00:00:00.60 bitrate=   0.6kbits/s speed=0.02x elapsed=0:00:30.00    \nframe=   20 fps=0.7 q=47.9 size=       0KiB time=00:00:00.60 bitrate=   0.6kbits/s speed=0.0196x elapsed=0:00:30.53    \nframe=   21 fps=0.7 q=48.0 size=       0KiB time=00:00:00.63 bitrate=   0.6kbits/s speed=0.0204x elapsed=0:00:31.07    \nframe=   21 fps=0.7 q=48.0 size=       0KiB time=00:00:00.63 bitrate=   0.6kbits/s speed=0.02x elapsed=0:00:31.59    \nframe=   21 fps=0.7 q=48.0 size=       0KiB time=00:00:00.63 bitrate=   0.6kbits/s speed=0.0197x elapsed=0:00:32.11    \nframe=   23 fps=0.7 q=46.8 size=       0KiB time=00:00:00.70 bitrate=   0.5kbits/s speed=0.0214x elapsed=0:00:32.65    \nframe=   23 fps=0.7 q=46.8 size=       0KiB time=00:00:00.70 bitrate=   0.5kbits/s speed=0.0211x elapsed=0:00:33.17    \nframe=   24 fps=0.7 q=48.1 size=       0KiB time=00:00:00.73 bitrate=   0.5kbits/s speed=0.0218x elapsed=0:00:33.70    \nframe=   24 fps=0.7 q=48.1 size=       0KiB time=00:00:00.73 bitrate=   0.5kbits/s speed=0.0214x elapsed=0:00:34.22    \nframe=   25 fps=0.7 q=48.1 size=       0KiB time=00:00:00.76 bitrate=   0.5kbits/s speed=0.0221x elapsed=0:00:34.73    \nframe=   25 fps=0.7 q=48.1 size=       0KiB time=00:00:00.76 bitrate=   0.5kbits/s speed=0.0217x elapsed=0:00:35.25    \nframe=   26 fps=0.7 q=43.5 size=       0KiB time=00:00:00.80 bitrate=   0.4kbits/s speed=0.0224x elapsed=0:00:35.77    \nframe=   26 fps=0.7 q=43.5 size=       0KiB time=00:00:00.80 bitrate=   0.4kbits/s speed=0.022x elapsed=0:00:36.29    \nframe=   26 fps=0.7 q=43.5 size=       0KiB time=00:00:00.80 bitrate=   0.4kbits/s speed=0.0217x elapsed=0:00:36.82    \nframe=   26 fps=0.7 q=43.5 size=       0KiB time=00:00:00.80 bitrate=   0.4kbits/s speed=0.0214x elapsed=0:00:37.37    \nframe=   27 fps=0.7 q=46.6 size=       0KiB time=00:00:00.83 bitrate=   0.4kbits/s speed=0.022x elapsed=0:00:37.93    \nframe=   27 fps=0.7 q=46.6 size=       0KiB time=00:00:00.83 bitrate=   0.4kbits/s speed=0.0217x elapsed=0:00:38.47    \nframe=   27 fps=0.7 q=46.6 size=       0KiB time=00:00:00.83 bitrate=   0.4kbits/s speed=0.0213x elapsed=0:00:39.03    \nframe=   27 fps=0.7 q=46.6 size=       0KiB time=00:00:00.83 bitrate=   0.4kbits/s speed=0.021x elapsed=0:00:39.68    \nframe=   28 fps=0.7 q=48.1 size=       0KiB time=00:00:00.86 bitrate=   0.4kbits/s speed=0.0215x elapsed=0:00:40.22    \nframe=   28 fps=0.7 q=48.1 size=       0KiB time=00:00:00.86 bitrate=   0.4kbits/s speed=0.0213x elapsed=0:00:40.76    \nframe=   28 fps=0.7 q=48.1 size=       0KiB time=00:00:00.86 bitrate=   0.4kbits/s speed=0.021x elapsed=0:00:41.31    \nframe=   28 fps=0.7 q=48.1 size=       0KiB time=00:00:00.86 bitrate=   0.4kbits/s speed=0.0207x elapsed=0:00:41.85    \nframe=   28 fps=0.7 q=48.1 size=       0KiB time=00:00:00.86 bitrate=   0.4kbits/s speed=0.0205x elapsed=0:00:42.37    \nframe=   29 fps=0.7 q=48.2 size=       0KiB time=00:00:00.90 bitrate=   0.4kbits/s speed=0.021x elapsed=0:00:42.88    \nframe=   29 fps=0.7 q=48.2 size=       0KiB time=00:00:00.90 bitrate=   0.4kbits/s speed=0.0207x elapsed=0:00:43.40    \nframe=   30 fps=0.7 q=48.1 size=       0KiB time=00:00:00.93 bitrate=   0.4kbits/s speed=0.0213x elapsed=0:00:43.91    \nframe=   31 fps=0.7 q=43.9 size=       0KiB time=00:00:00.96 bitrate=   0.4kbits/s speed=0.0218x elapsed=0:00:44.42    \nframe=   32 fps=0.7 q=46.0 size=       0KiB time=00:00:01.00 bitrate=   0.4kbits/s speed=0.0222x elapsed=0:00:44.94    \nframe=   33 fps=0.7 q=48.2 size=       0KiB time=00:00:01.03 bitrate=   0.3kbits/s speed=0.0227x elapsed=0:00:45.47    \nframe=   33 fps=0.7 q=48.2 size=       0KiB time=00:00:01.03 bitrate=   0.3kbits/s speed=0.0225x elapsed=0:00:45.99    \nframe=   34 fps=0.7 q=48.2 size=       0KiB time=00:00:01.06 bitrate=   0.3kbits/s speed=0.0229x elapsed=0:00:46.51    \nframe=   34 fps=0.7 q=48.2 size=       0KiB time=00:00:01.06 bitrate=   0.3kbits/s speed=0.0227x elapsed=0:00:47.02    \nframe=   35 fps=0.7 q=48.1 size=       0KiB time=00:00:01.10 bitrate=   0.3kbits/s speed=0.0231x elapsed=0:00:47.53    \nframe=   35 fps=0.7 q=48.1 size=       0KiB time=00:00:01.10 bitrate=   0.3kbits/s speed=0.0229x elapsed=0:00:48.05    \nframe=   35 fps=0.7 q=48.1 size=       0KiB time=00:00:01.10 bitrate=   0.3kbits/s speed=0.0226x elapsed=0:00:48.58    \nframe=   36 fps=0.7 q=43.7 size=       0KiB time=00:00:01.13 bitrate=   0.3kbits/s speed=0.0231x elapsed=0:00:49.10    \nframe=   38 fps=0.8 q=48.2 size=       0KiB time=00:00:01.20 bitrate=   0.3kbits/s speed=0.0242x elapsed=0:00:49.62    \nframe=   38 fps=0.8 q=48.2 size=       0KiB time=00:00:01.20 bitrate=   0.3kbits/s speed=0.0239x elapsed=0:00:50.14    \nframe=   38 fps=0.8 q=48.2 size=       0KiB time=00:00:01.20 bitrate=   0.3kbits/s speed=0.0237x elapsed=0:00:50.66    \nframe=   39 fps=0.8 q=48.8 size=       0KiB time=00:00:01.23 bitrate=   0.3kbits/s speed=0.0241x elapsed=0:00:51.19    \nframe=   39 fps=0.8 q=48.8 size=       0KiB time=00:00:01.23 bitrate=   0.3kbits/s speed=0.0238x elapsed=0:00:51.71    \nframe=   39 fps=0.7 q=48.8 size=       0KiB time=00:00:01.23 bitrate=   0.3kbits/s speed=0.0236x elapsed=0:00:52.24    \nframe=   40 fps=0.8 q=48.9 size=       0KiB time=00:00:01.26 bitrate=   0.3kbits/s speed=0.024x elapsed=0:00:52.77    \nframe=   40 fps=0.8 q=48.9 size=       0KiB time=00:00:01.26 bitrate=   0.3kbits/s speed=0.0238x elapsed=0:00:53.29    \nframe=   40 fps=0.7 q=48.9 size=       0KiB time=00:00:01.26 bitrate=   0.3kbits/s speed=0.0235x elapsed=0:00:53.81    \nframe=   40 fps=0.7 q=48.9 size=       0KiB time=00:00:01.26 bitrate=   0.3kbits/s speed=0.0233x elapsed=0:00:54.33    \nframe=   42 fps=0.8 q=47.1 size=     256KiB time=00:00:01.33 bitrate=1573.1kbits/s speed=0.0243x elapsed=0:00:54.86    \nframe=   42 fps=0.8 q=47.1 size=     256KiB time=00:00:01.33 bitrate=1573.1kbits/s speed=0.0241x elapsed=0:00:55.41    \nframe=   42 fps=0.8 q=47.1 size=     256KiB time=00:00:01.33 bitrate=1573.1kbits/s speed=0.0238x elapsed=0:00:55.94    \nframe=   42 fps=0.7 q=47.1 size=     256KiB time=00:00:01.33 bitrate=1573.1kbits/s speed=0.0236x elapsed=0:00:56.47    \nframe=   43 fps=0.8 q=48.9 size=     256KiB time=00:00:01.36 bitrate=1534.8kbits/s speed=0.024x elapsed=0:00:57.02    \nframe=   44 fps=0.8 q=48.8 size=     256KiB time=00:00:01.40 bitrate=1498.2kbits/s speed=0.0243x elapsed=0:00:57.54    \nframe=   44 fps=0.8 q=48.8 size=     256KiB time=00:00:01.40 bitrate=1498.2kbits/s speed=0.0241x elapsed=0:00:58.11    \nframe=   44 fps=0.8 q=48.8 size=     256KiB time=00:00:01.40 bitrate=1498.2kbits/s speed=0.0239x elapsed=0:00:58.62    \nframe=   44 fps=0.7 q=48.8 size=     256KiB time=00:00:01.40 bitrate=1498.2kbits/s speed=0.0237x elapsed=0:00:59.17    \nframe=   45 fps=0.8 q=48.8 size=     256KiB time=00:00:01.43 bitrate=1463.4kbits/s speed=0.024x elapsed=0:00:59.69    \nframe=   45 fps=0.7 q=48.8 size=     256KiB time=00:00:01.43 bitrate=1463.4kbits/s speed=0.0238x elapsed=0:01:00.23    \nframe=   45 fps=0.7 q=48.8 size=     256KiB time=00:00:01.43 bitrate=1463.4kbits/s speed=0.0236x elapsed=0:01:00.75    \nframe=   45 fps=0.7 q=48.8 size=     256KiB time=00:00:01.43 bitrate=1463.4kbits/s speed=0.0234x elapsed=0:01:01.28    \nframe=   47 fps=0.8 q=47.2 size=     256KiB time=00:00:01.50 bitrate=1398.3kbits/s speed=0.0243x elapsed=0:01:01.80    \nframe=   47 fps=0.8 q=47.2 size=     256KiB time=00:00:01.50 bitrate=1398.3kbits/s speed=0.0241x elapsed=0:01:02.36    \nframe=   48 fps=0.8 q=48.8 size=     256KiB time=00:00:01.53 bitrate=1367.9kbits/s speed=0.0244x elapsed=0:01:02.87    \nframe=   48 fps=0.8 q=48.8 size=     256KiB time=00:00:01.53 bitrate=1367.9kbits/s speed=0.0242x elapsed=0:01:03.40    \nframe=   48 fps=0.8 q=48.8 size=     256KiB time=00:00:01.53 bitrate=1367.9kbits/s speed=0.024x elapsed=0:01:03.91    \nframe=   49 fps=0.8 q=48.9 size=     256KiB time=00:00:01.56 bitrate=1338.8kbits/s speed=0.0243x elapsed=0:01:04.43    \nframe=   50 fps=0.8 q=48.9 size=     256KiB time=00:00:01.60 bitrate=1310.9kbits/s speed=0.0246x elapsed=0:01:04.96    \nframe=   50 fps=0.8 q=48.9 size=     256KiB time=00:00:01.60 bitrate=1310.9kbits/s speed=0.0244x elapsed=0:01:05.49    \nframe=   50 fps=0.8 q=48.9 size=     256KiB time=00:00:01.60 bitrate=1310.9kbits/s speed=0.0242x elapsed=0:01:06.03    \nframe=   50 fps=0.8 q=48.9 size=     256KiB time=00:00:01.60 bitrate=1310.9kbits/s speed=0.024x elapsed=0:01:06.55    \nframe=   50 fps=0.7 q=48.9 size=     256KiB time=00:00:01.60 bitrate=1310.9kbits/s speed=0.0239x elapsed=0:01:07.07    \nframe=   51 fps=0.8 q=43.8 size=     256KiB time=00:00:01.63 bitrate=1284.2kbits/s speed=0.0242x elapsed=0:01:07.58    \nframe=   52 fps=0.8 q=47.1 size=     256KiB time=00:00:01.66 bitrate=1258.5kbits/s speed=0.0245x elapsed=0:01:08.09    \nframe=   52 fps=0.8 q=47.1 size=     256KiB time=00:00:01.66 bitrate=1258.5kbits/s speed=0.0243x elapsed=0:01:08.62    \nframe=   52 fps=0.8 q=47.1 size=     256KiB time=00:00:01.66 bitrate=1258.5kbits/s speed=0.0241x elapsed=0:01:09.17    \nframe=   53 fps=0.8 q=48.2 size=     256KiB time=00:00:01.70 bitrate=1233.8kbits/s speed=0.0244x elapsed=0:01:09.68    \nframe=   53 fps=0.8 q=48.2 size=     256KiB time=00:00:01.70 bitrate=1233.8kbits/s speed=0.0242x elapsed=0:01:10.20    \nframe=   53 fps=0.7 q=48.2 size=     256KiB time=00:00:01.70 bitrate=1233.8kbits/s speed=0.024x elapsed=0:01:10.74    \nframe=   54 fps=0.8 q=48.3 size=     256KiB time=00:00:01.73 bitrate=1210.1kbits/s speed=0.0243x elapsed=0:01:11.25    \nframe=   54 fps=0.8 q=48.3 size=     256KiB time=00:00:01.73 bitrate=1210.1kbits/s speed=0.0241x elapsed=0:01:11.77    \nframe=   55 fps=0.8 q=48.1 size=     256KiB time=00:00:01.73 bitrate=1210.1kbits/s speed=0.024x elapsed=0:01:12.31    \nframe=   55 fps=0.8 q=48.1 size=     256KiB time=00:00:01.76 bitrate=1187.3kbits/s speed=0.0242x elapsed=0:01:12.90    \nframe=   55 fps=0.7 q=48.1 size=     256KiB time=00:00:01.76 bitrate=1187.3kbits/s speed=0.0241x elapsed=0:01:13.42    \nframe=   56 fps=0.8 q=43.3 size=     256KiB time=00:00:01.80 bitrate=1165.3kbits/s speed=0.0243x elapsed=0:01:13.93    \nframe=   56 fps=0.8 q=43.3 size=     256KiB time=00:00:01.80 bitrate=1165.3kbits/s speed=0.0242x elapsed=0:01:14.45    \nframe=   57 fps=0.8 q=47.1 size=     256KiB time=00:00:01.83 bitrate=1144.1kbits/s speed=0.0245x elapsed=0:01:14.97    \nframe=   58 fps=0.8 q=48.2 size=     256KiB time=00:00:01.86 bitrate=1123.7kbits/s speed=0.0247x elapsed=0:01:15.50    \nframe=   58 fps=0.8 q=48.2 size=     256KiB time=00:00:01.86 bitrate=1123.7kbits/s speed=0.0246x elapsed=0:01:16.01    \nframe=   58 fps=0.8 q=48.2 size=     256KiB time=00:00:01.86 bitrate=1123.7kbits/s speed=0.0244x elapsed=0:01:16.54    \nframe=   60 fps=0.8 q=48.1 size=     256KiB time=00:00:01.93 bitrate=1084.9kbits/s speed=0.0251x elapsed=0:01:17.07    \nframe=   60 fps=0.8 q=48.1 size=     256KiB time=00:00:01.93 bitrate=1084.9kbits/s speed=0.0249x elapsed=0:01:17.58    \nframe=   60 fps=0.8 q=48.1 size=     256KiB time=00:00:01.93 bitrate=1084.9kbits/s speed=0.0248x elapsed=0:01:18.10    \nframe=   60 fps=0.8 q=48.1 size=     256KiB time=00:00:01.93 bitrate=1084.9kbits/s speed=0.0246x elapsed=0:01:18.62    \nframe=   61 fps=0.8 q=43.5 size=     256KiB time=00:00:01.96 bitrate=1066.5kbits/s speed=0.0248x elapsed=0:01:19.17    \nframe=   61 fps=0.8 q=43.5 size=     256KiB time=00:00:01.96 bitrate=1066.5kbits/s speed=0.0247x elapsed=0:01:19.71    \nframe=   61 fps=0.8 q=43.5 size=     256KiB time=00:00:01.96 bitrate=1066.5kbits/s speed=0.0245x elapsed=0:01:20.22    \nframe=   62 fps=0.8 q=47.1 size=     256KiB time=00:00:02.00 bitrate=1048.8kbits/s speed=0.0248x elapsed=0:01:20.76    \nframe=   63 fps=0.8 q=48.2 size=     256KiB time=00:00:02.03 bitrate=1031.6kbits/s speed=0.025x elapsed=0:01:21.28    \nframe=   64 fps=0.8 q=48.2 size=     256KiB time=00:00:02.06 bitrate=1014.9kbits/s speed=0.0253x elapsed=0:01:21.80    \nframe=   65 fps=0.8 q=48.1 size=     256KiB time=00:00:02.10 bitrate= 998.8kbits/s speed=0.0255x elapsed=0:01:22.32    \nframe=   65 fps=0.8 q=48.1 size=     256KiB time=00:00:02.10 bitrate= 998.8kbits/s speed=0.0253x elapsed=0:01:22.84    \nframe=   66 fps=0.8 q=43.6 size=     256KiB time=00:00:02.13 bitrate= 983.2kbits/s speed=0.0256x elapsed=0:01:23.36    \nframe=   66 fps=0.8 q=43.6 size=     256KiB time=00:00:02.13 bitrate= 983.2kbits/s speed=0.0254x elapsed=0:01:23.89    \nframe=   66 fps=0.8 q=43.6 size=     256KiB time=00:00:02.13 bitrate= 983.2kbits/s speed=0.0253x elapsed=0:01:24.41    \nframe=   66 fps=0.8 q=43.6 size=     256KiB time=00:00:02.13 bitrate= 983.2kbits/s speed=0.0251x elapsed=0:01:24.95    \nframe=   68 fps=0.8 q=48.2 size=     256KiB time=00:00:02.20 bitrate= 953.4kbits/s speed=0.0257x elapsed=0:01:25.47    \nframe=   68 fps=0.8 q=48.2 size=     256KiB time=00:00:02.20 bitrate= 953.4kbits/s speed=0.0256x elapsed=0:01:25.97    \nframe=   68 fps=0.8 q=48.2 size=     256KiB time=00:00:02.20 bitrate= 953.4kbits/s speed=0.0254x elapsed=0:01:26.49    \nframe=   69 fps=0.8 q=48.1 size=     256KiB time=00:00:02.20 bitrate= 953.4kbits/s speed=0.0253x elapsed=0:01:27.00    \nframe=   70 fps=0.8 q=48.1 size=     256KiB time=00:00:02.26 bitrate= 925.4kbits/s speed=0.0259x elapsed=0:01:27.59    \nframe=   70 fps=0.8 q=48.1 size=     256KiB time=00:00:02.26 bitrate= 925.4kbits/s speed=0.0257x elapsed=0:01:28.12    \nframe=   70 fps=0.8 q=48.1 size=     256KiB time=00:00:02.26 bitrate= 925.4kbits/s speed=0.0255x elapsed=0:01:28.76    \nframe=   70 fps=0.8 q=48.1 size=     256KiB time=00:00:02.26 bitrate= 925.4kbits/s speed=0.0254x elapsed=0:01:29.40    \nframe=   70 fps=0.8 q=48.1 size=     256KiB time=00:00:02.26 bitrate= 925.4kbits/s speed=0.0252x elapsed=0:01:29.99    \nframe=   71 fps=0.8 q=43.8 size=     256KiB time=00:00:02.30 bitrate= 912.0kbits/s speed=0.0254x elapsed=0:01:30.53    \nframe=   71 fps=0.8 q=43.8 size=     256KiB time=00:00:02.30 bitrate= 912.0kbits/s speed=0.0253x elapsed=0:01:31.07    \nframe=   71 fps=0.8 q=43.8 size=     256KiB time=00:00:02.30 bitrate= 912.0kbits/s speed=0.0251x elapsed=0:01:31.60    \nframe=   71 fps=0.8 q=43.8 size=     256KiB time=00:00:02.30 bitrate= 912.0kbits/s speed=0.025x elapsed=0:01:32.15    \nframe=   71 fps=0.8 q=43.8 size=     256KiB time=00:00:02.30 bitrate= 912.0kbits/s speed=0.0248x elapsed=0:01:32.69    \nframe=   71 fps=0.8 q=43.8 size=     256KiB time=00:00:02.30 bitrate= 912.0kbits/s speed=0.0247x elapsed=0:01:33.21    \nframe=   71 fps=0.8 q=43.8 size=     256KiB time=00:00:02.30 bitrate= 912.0kbits/s speed=0.0245x elapsed=0:01:33.74    \nframe=   72 fps=0.8 q=46.6 size=     256KiB time=00:00:02.33 bitrate= 898.9kbits/s speed=0.0248x elapsed=0:01:34.25    \nframe=   74 fps=0.8 q=48.1 size=     256KiB time=00:00:02.40 bitrate= 874.0kbits/s speed=0.0253x elapsed=0:01:34.79    \nframe=   74 fps=0.8 q=48.1 size=     256KiB time=00:00:02.40 bitrate= 874.0kbits/s speed=0.0252x elapsed=0:01:35.35    \nframe=   74 fps=0.8 q=48.1 size=     256KiB time=00:00:02.40 bitrate= 874.0kbits/s speed=0.025x elapsed=0:01:35.88    \nframe=   75 fps=0.8 q=43.5 size=     256KiB time=00:00:02.43 bitrate= 862.0kbits/s speed=0.0252x elapsed=0:01:36.40    \nframe=   75 fps=0.8 q=43.5 size=     256KiB time=00:00:02.43 bitrate= 862.0kbits/s speed=0.0251x elapsed=0:01:36.91    \nframe=   75 fps=0.8 q=43.5 size=     256KiB time=00:00:02.43 bitrate= 862.0kbits/s speed=0.025x elapsed=0:01:37.43    \nframe=   76 fps=0.8 q=46.6 size=     256KiB time=00:00:02.46 bitrate= 850.3kbits/s speed=0.0252x elapsed=0:01:37.96    \nframe=   76 fps=0.8 q=46.6 size=     256KiB time=00:00:02.46 bitrate= 850.3kbits/s speed=0.025x elapsed=0:01:38.47    \nframe=   77 fps=0.8 q=48.1 size=     256KiB time=00:00:02.50 bitrate= 839.0kbits/s speed=0.0252x elapsed=0:01:39.01    \nframe=   77 fps=0.8 q=48.1 size=     256KiB time=00:00:02.50 bitrate= 839.0kbits/s speed=0.0251x elapsed=0:01:39.55    \nframe=   77 fps=0.8 q=48.1 size=     256KiB time=00:00:02.50 bitrate= 839.0kbits/s speed=0.025x elapsed=0:01:40.06    \nframe=   79 fps=0.8 q=48.1 size=     256KiB time=00:00:02.56 bitrate= 817.2kbits/s speed=0.0255x elapsed=0:01:40.58    \nframe=   80 fps=0.8 q=43.3 size=     256KiB time=00:00:02.60 bitrate= 806.7kbits/s speed=0.0257x elapsed=0:01:41.13    \nframe=   80 fps=0.8 q=43.3 size=     256KiB time=00:00:02.60 bitrate= 806.7kbits/s speed=0.0256x elapsed=0:01:41.67    \nframe=   80 fps=0.8 q=43.3 size=     256KiB time=00:00:02.60 bitrate= 806.7kbits/s speed=0.0254x elapsed=0:01:42.23    \nframe=   81 fps=0.8 q=45.9 size=     256KiB time=00:00:02.63 bitrate= 796.5kbits/s speed=0.0256x elapsed=0:01:42.75    \nframe=   81 fps=0.8 q=45.9 size=     256KiB time=00:00:02.63 bitrate= 796.5kbits/s speed=0.0255x elapsed=0:01:43.28    \nframe=   83 fps=0.8 q=48.2 size=     256KiB time=00:00:02.70 bitrate= 776.9kbits/s speed=0.026x elapsed=0:01:43.80    \nframe=   84 fps=0.8 q=48.8 size=     256KiB time=00:00:02.73 bitrate= 767.4kbits/s speed=0.0262x elapsed=0:01:44.31    \nframe=   84 fps=0.8 q=48.8 size=     256KiB time=00:00:02.73 bitrate= 767.4kbits/s speed=0.0261x elapsed=0:01:44.84    \nframe=   84 fps=0.8 q=48.8 size=     256KiB time=00:00:02.73 bitrate= 767.4kbits/s speed=0.0259x elapsed=0:01:45.35    \nframe=   84 fps=0.8 q=48.8 size=     256KiB time=00:00:02.73 bitrate= 767.4kbits/s speed=0.0258x elapsed=0:01:45.88    \nframe=   84 fps=0.8 q=48.8 size=     256KiB time=00:00:02.73 bitrate= 767.4kbits/s speed=0.0257x elapsed=0:01:46.40    \nframe=   85 fps=0.8 q=43.8 size=     256KiB time=00:00:02.76 bitrate= 758.1kbits/s speed=0.0259x elapsed=0:01:46.93    \nframe=   85 fps=0.8 q=43.8 size=     256KiB time=00:00:02.76 bitrate= 758.1kbits/s speed=0.0257x elapsed=0:01:47.45    \nframe=   85 fps=0.8 q=43.8 size=     256KiB time=00:00:02.76 bitrate= 758.1kbits/s speed=0.0256x elapsed=0:01:47.98    \nframe=   85 fps=0.8 q=43.8 size=     256KiB time=00:00:02.76 bitrate= 758.1kbits/s speed=0.0255x elapsed=0:01:48.51    \nframe=   86 fps=0.8 q=46.7 size=     512KiB time=00:00:02.80 bitrate=1498.1kbits/s speed=0.0257x elapsed=0:01:49.03    \nframe=   86 fps=0.8 q=46.7 size=     512KiB time=00:00:02.80 bitrate=1498.1kbits/s speed=0.0256x elapsed=0:01:49.56    \nframe=   87 fps=0.8 q=48.1 size=     512KiB time=00:00:02.83 bitrate=1480.5kbits/s speed=0.0257x elapsed=0:01:50.08    \nframe=   88 fps=0.8 q=48.9 size=     512KiB time=00:00:02.86 bitrate=1463.3kbits/s speed=0.0259x elapsed=0:01:50.63    \nframe=   89 fps=0.8 q=43.7 size=     512KiB time=00:00:02.90 bitrate=1446.4kbits/s speed=0.0261x elapsed=0:01:51.14    \nframe=   89 fps=0.8 q=43.7 size=     512KiB time=00:00:02.90 bitrate=1446.4kbits/s speed=0.026x elapsed=0:01:51.68    \nframe=   89 fps=0.8 q=43.7 size=     512KiB time=00:00:02.90 bitrate=1446.4kbits/s speed=0.0258x elapsed=0:01:52.19    \nframe=   89 fps=0.8 q=43.7 size=     512KiB time=00:00:02.90 bitrate=1446.4kbits/s speed=0.0257x elapsed=0:01:52.72    \nframe=   90 fps=0.8 q=46.7 size=     512KiB time=00:00:02.93 bitrate=1430.0kbits/s speed=0.0259x elapsed=0:01:53.24    \nframe=   90 fps=0.8 q=46.7 size=     512KiB time=00:00:02.93 bitrate=1430.0kbits/s speed=0.0258x elapsed=0:01:53.75    \nframe=   92 fps=0.8 q=48.2 size=     512KiB time=00:00:03.00 bitrate=1398.2kbits/s speed=0.0263x elapsed=0:01:54.27    \nframe=   93 fps=0.8 q=48.1 size=     512KiB time=00:00:03.03 bitrate=1382.9kbits/s speed=0.0264x elapsed=0:01:54.81    \nframe=   93 fps=0.8 q=48.1 size=     512KiB time=00:00:03.03 bitrate=1382.9kbits/s speed=0.0263x elapsed=0:01:55.33    \nframe=   93 fps=0.8 q=48.1 size=     512KiB time=00:00:03.03 bitrate=1382.9kbits/s speed=0.0262x elapsed=0:01:55.87    \nframe=   93 fps=0.8 q=48.1 size=     512KiB time=00:00:03.03 bitrate=1382.9kbits/s speed=0.0261x elapsed=0:01:56.39    \nframe=   94 fps=0.8 q=43.7 size=     512KiB time=00:00:03.06 bitrate=1367.8kbits/s speed=0.0262x elapsed=0:01:56.91    \nframe=   94 fps=0.8 q=43.7 size=     512KiB time=00:00:03.06 bitrate=1367.8kbits/s speed=0.0261x elapsed=0:01:57.43    \nframe=   94 fps=0.8 q=43.7 size=     512KiB time=00:00:03.06 bitrate=1367.8kbits/s speed=0.026x elapsed=0:01:57.94    \nframe=   95 fps=0.8 q=46.7 size=     512KiB time=00:00:03.10 bitrate=1353.1kbits/s speed=0.0262x elapsed=0:01:58.47    \nframe=   96 fps=0.8 q=48.2 size=     512KiB time=00:00:03.13 bitrate=1338.7kbits/s speed=0.0263x elapsed=0:01:59.00    \nframe=   96 fps=0.8 q=48.2 size=     512KiB time=00:00:03.13 bitrate=1338.7kbits/s speed=0.0262x elapsed=0:01:59.50    \nframe=   97 fps=0.8 q=48.2 size=     512KiB time=00:00:03.16 bitrate=1324.6kbits/s speed=0.0264x elapsed=0:02:00.02    \nframe=   98 fps=0.8 q=48.1 size=     512KiB time=00:00:03.20 bitrate=1310.8kbits/s speed=0.0265x elapsed=0:02:00.56    \nframe=   98 fps=0.8 q=48.1 size=     512KiB time=00:00:03.20 bitrate=1310.8kbits/s speed=0.0264x elapsed=0:02:01.11    \nframe=   98 fps=0.8 q=48.1 size=     512KiB time=00:00:03.20 bitrate=1310.8kbits/s speed=0.0263x elapsed=0:02:01.63    \nframe=   99 fps=0.8 q=43.8 size=     512KiB time=00:00:03.23 bitrate=1297.3kbits/s speed=0.0265x elapsed=0:02:02.14    \nframe=  100 fps=0.8 q=45.8 size=     512KiB time=00:00:03.26 bitrate=1284.1kbits/s speed=0.0266x elapsed=0:02:02.67    \nframe=  100 fps=0.8 q=45.8 size=     512KiB time=00:00:03.26 bitrate=1284.1kbits/s speed=0.0265x elapsed=0:02:03.17    \nframe=  101 fps=0.8 q=48.3 size=     512KiB time=00:00:03.30 bitrate=1271.1kbits/s speed=0.0267x elapsed=0:02:03.69    \nframe=  102 fps=0.8 q=48.2 size=     512KiB time=00:00:03.33 bitrate=1258.4kbits/s speed=0.0268x elapsed=0:02:04.25    \nframe=  103 fps=0.8 q=48.1 size=     512KiB time=00:00:03.36 bitrate=1245.9kbits/s speed=0.027x elapsed=0:02:04.77    \nframe=  103 fps=0.8 q=48.1 size=     512KiB time=00:00:03.36 bitrate=1245.9kbits/s speed=0.0269x elapsed=0:02:05.29    \nframe=  104 fps=0.8 q=43.7 size=     512KiB time=00:00:03.40 bitrate=1233.7kbits/s speed=0.027x elapsed=0:02:05.80    \nframe=  104 fps=0.8 q=43.7 size=     512KiB time=00:00:03.40 bitrate=1233.7kbits/s speed=0.0269x elapsed=0:02:06.32    \nframe=  104 fps=0.8 q=43.7 size=     512KiB time=00:00:03.40 bitrate=1233.7kbits/s speed=0.0268x elapsed=0:02:06.84    \nframe=  105 fps=0.8 q=47.2 size=     512KiB time=00:00:03.43 bitrate=1221.7kbits/s speed=0.027x elapsed=0:02:07.36    \nframe=  105 fps=0.8 q=47.2 size=     512KiB time=00:00:03.43 bitrate=1221.7kbits/s speed=0.0268x elapsed=0:02:07.88    \nframe=  105 fps=0.8 q=47.2 size=     512KiB time=00:00:03.43 bitrate=1221.7kbits/s speed=0.0267x elapsed=0:02:08.40    \nframe=  105 fps=0.8 q=47.2 size=     512KiB time=00:00:03.43 bitrate=1221.7kbits/s speed=0.0266x elapsed=0:02:08.94    \nframe=  105 fps=0.8 q=47.2 size=     512KiB time=00:00:03.43 bitrate=1221.7kbits/s speed=0.0265x elapsed=0:02:09.52    \nframe=  105 fps=0.8 q=47.2 size=     512KiB time=00:00:03.43 bitrate=1221.7kbits/s speed=0.0264x elapsed=0:02:10.11    \nframe=  106 fps=0.8 q=48.3 size=     512KiB time=00:00:03.46 bitrate=1210.0kbits/s speed=0.0265x elapsed=0:02:10.71    \nframe=  106 fps=0.8 q=48.3 size=     512KiB time=00:00:03.46 bitrate=1210.0kbits/s speed=0.0264x elapsed=0:02:11.42    \nframe=  106 fps=0.8 q=48.3 size=     512KiB time=00:00:03.46 bitrate=1210.0kbits/s speed=0.0262x elapsed=0:02:12.10    \nframe=  106 fps=0.8 q=48.3 size=     512KiB time=00:00:03.46 bitrate=1210.0kbits/s speed=0.0261x elapsed=0:02:12.65    \nframe=  106 fps=0.8 q=48.3 size=     512KiB time=00:00:03.46 bitrate=1210.0kbits/s speed=0.026x elapsed=0:02:13.21    \nframe=  108 fps=0.8 q=48.0 size=     512KiB time=00:00:03.53 bitrate=1187.2kbits/s speed=0.0264x elapsed=0:02:13.77    \nframe=  108 fps=0.8 q=48.0 size=     512KiB time=00:00:03.53 bitrate=1187.2kbits/s speed=0.0263x elapsed=0:02:14.30    \nframe=  108 fps=0.8 q=48.0 size=     512KiB time=00:00:03.53 bitrate=1187.2kbits/s speed=0.0262x elapsed=0:02:14.82    \nframe=  108 fps=0.8 q=48.0 size=     512KiB time=00:00:03.53 bitrate=1187.2kbits/s speed=0.0261x elapsed=0:02:15.33    \nframe=  108 fps=0.8 q=48.0 size=     512KiB time=00:00:03.53 bitrate=1187.2kbits/s speed=0.026x elapsed=0:02:15.86    \nframe=  109 fps=0.8 q=43.7 size=     512KiB time=00:00:03.56 bitrate=1176.1kbits/s speed=0.0261x elapsed=0:02:16.39    \nframe=  109 fps=0.8 q=43.7 size=     512KiB time=00:00:03.56 bitrate=1176.1kbits/s speed=0.026x elapsed=0:02:16.93    \nframe=  109 fps=0.8 q=43.7 size=     512KiB time=00:00:03.56 bitrate=1176.1kbits/s speed=0.0259x elapsed=0:02:17.47    \nframe=  109 fps=0.8 q=43.7 size=     512KiB time=00:00:03.56 bitrate=1176.1kbits/s speed=0.0258x elapsed=0:02:18.00    \nframe=  109 fps=0.8 q=43.7 size=     512KiB time=00:00:03.56 bitrate=1176.1kbits/s speed=0.0257x elapsed=0:02:18.53    \nframe=  109 fps=0.8 q=43.7 size=     512KiB time=00:00:03.56 bitrate=1176.1kbits/s speed=0.0256x elapsed=0:02:19.10    \nframe=  110 fps=0.8 q=47.1 size=     512KiB time=00:00:03.60 bitrate=1165.2kbits/s speed=0.0258x elapsed=0:02:19.64    \nframe=  110 fps=0.8 q=47.1 size=     512KiB time=00:00:03.60 bitrate=1165.2kbits/s speed=0.0257x elapsed=0:02:20.14    \nframe=  113 fps=0.8 q=48.1 size=     512KiB time=00:00:03.70 bitrate=1133.7kbits/s speed=0.0263x elapsed=0:02:20.66    \nframe=  113 fps=0.8 q=48.1 size=     512KiB time=00:00:03.70 bitrate=1133.7kbits/s speed=0.0262x elapsed=0:02:21.18    \nframe=  113 fps=0.8 q=48.1 size=     512KiB time=00:00:03.70 bitrate=1133.7kbits/s speed=0.0261x elapsed=0:02:21.71    \nframe=  113 fps=0.8 q=48.1 size=     512KiB time=00:00:03.70 bitrate=1133.7kbits/s speed=0.026x elapsed=0:02:22.25    \nframe=  113 fps=0.8 q=48.1 size=     512KiB time=00:00:03.70 bitrate=1133.7kbits/s speed=0.0259x elapsed=0:02:22.78    \nframe=  113 fps=0.8 q=48.1 size=     512KiB time=00:00:03.70 bitrate=1133.7kbits/s speed=0.0258x elapsed=0:02:23.32    \nframe=  113 fps=0.8 q=48.1 size=     512KiB time=00:00:03.70 bitrate=1133.7kbits/s speed=0.0257x elapsed=0:02:23.96    \nframe=  114 fps=0.8 q=43.6 size=     512KiB time=00:00:03.73 bitrate=1123.6kbits/s speed=0.0258x elapsed=0:02:24.58    \nframe=  114 fps=0.8 q=43.6 size=     512KiB time=00:00:03.73 bitrate=1123.6kbits/s speed=0.0257x elapsed=0:02:25.22    \nframe=  114 fps=0.8 q=43.6 size=     512KiB time=00:00:03.73 bitrate=1123.6kbits/s speed=0.0256x elapsed=0:02:25.79    \nframe=  114 fps=0.8 q=43.6 size=     512KiB time=00:00:03.73 bitrate=1123.6kbits/s speed=0.0255x elapsed=0:02:26.35    \nframe=  114 fps=0.8 q=43.6 size=     512KiB time=00:00:03.73 bitrate=1123.6kbits/s speed=0.0254x elapsed=0:02:26.93    \nframe=  114 fps=0.8 q=43.6 size=     512KiB time=00:00:03.73 bitrate=1123.6kbits/s speed=0.0253x elapsed=0:02:27.50    \nframe=  114 fps=0.8 q=43.6 size=     512KiB time=00:00:03.73 bitrate=1123.6kbits/s speed=0.0252x elapsed=0:02:28.05    \nframe=  115 fps=0.8 q=47.1 size=     512KiB time=00:00:03.76 bitrate=1113.6kbits/s speed=0.0253x elapsed=0:02:28.59    \nframe=  115 fps=0.8 q=47.1 size=     512KiB time=00:00:03.76 bitrate=1113.6kbits/s speed=0.0253x elapsed=0:02:29.10    \nframe=  116 fps=0.8 q=48.2 size=     512KiB time=00:00:03.80 bitrate=1103.9kbits/s speed=0.0254x elapsed=0:02:29.63    \nframe=  117 fps=0.8 q=48.1 size=     512KiB time=00:00:03.83 bitrate=1094.3kbits/s speed=0.0255x elapsed=0:02:30.14    \nframe=  117 fps=0.8 q=48.1 size=     512KiB time=00:00:03.83 bitrate=1094.3kbits/s speed=0.0254x elapsed=0:02:30.69    \nframe=  118 fps=0.8 q=48.2 size=     512KiB time=00:00:03.86 bitrate=1084.8kbits/s speed=0.0256x elapsed=0:02:31.23    \nframe=  118 fps=0.8 q=48.2 size=     512KiB time=00:00:03.86 bitrate=1084.8kbits/s speed=0.0255x elapsed=0:02:31.75    \nframe=  118 fps=0.8 q=48.2 size=     512KiB time=00:00:03.86 bitrate=1084.8kbits/s speed=0.0254x elapsed=0:02:32.29    \nframe=  118 fps=0.8 q=48.2 size=     512KiB time=00:00:03.86 bitrate=1084.8kbits/s speed=0.0253x elapsed=0:02:32.84    \nframe=  118 fps=0.8 q=48.2 size=     512KiB time=00:00:03.86 bitrate=1084.8kbits/s speed=0.0252x elapsed=0:02:33.39    \nframe=  118 fps=0.8 q=48.2 size=     512KiB time=00:00:03.86 bitrate=1084.8kbits/s speed=0.0251x elapsed=0:02:33.97    \nframe=  119 fps=0.8 q=44.1 size=     512KiB time=00:00:03.90 bitrate=1075.6kbits/s speed=0.0252x elapsed=0:02:34.52    \nframe=  119 fps=0.8 q=44.1 size=     512KiB time=00:00:03.90 bitrate=1075.6kbits/s speed=0.0252x elapsed=0:02:35.03    \nframe=  119 fps=0.8 q=44.1 size=     512KiB time=00:00:03.90 bitrate=1075.6kbits/s speed=0.0251x elapsed=0:02:35.56    \nframe=  119 fps=0.8 q=44.1 size=     512KiB time=00:00:03.90 bitrate=1075.6kbits/s speed=0.025x elapsed=0:02:36.13    \nframe=  119 fps=0.8 q=44.1 size=     512KiB time=00:00:03.90 bitrate=1075.6kbits/s speed=0.0249x elapsed=0:02:36.68    \nframe=  119 fps=0.8 q=44.1 size=     512KiB time=00:00:03.90 bitrate=1075.6kbits/s speed=0.0248x elapsed=0:02:37.24    \nframe=  119 fps=0.8 q=44.1 size=     512KiB time=00:00:03.90 bitrate=1075.6kbits/s speed=0.0247x elapsed=0:02:37.79    \nframe=  119 fps=0.8 q=44.1 size=     512KiB time=00:00:03.90 bitrate=1075.6kbits/s speed=0.0246x elapsed=0:02:38.31    \nframe=  119 fps=0.7 q=44.1 size=     512KiB time=00:00:03.90 bitrate=1075.6kbits/s speed=0.0245x elapsed=0:02:38.86    \nframe=  120 fps=0.8 q=46.6 size=     512KiB time=00:00:03.93 bitrate=1066.4kbits/s speed=0.0247x elapsed=0:02:39.38    \nframe=  120 fps=0.8 q=46.6 size=     512KiB time=00:00:03.93 bitrate=1066.4kbits/s speed=0.0246x elapsed=0:02:39.93    \nframe=  120 fps=0.7 q=46.6 size=     512KiB time=00:00:03.93 bitrate=1066.4kbits/s speed=0.0245x elapsed=0:02:40.51    \nframe=  120 fps=0.7 q=46.6 size=     512KiB time=00:00:03.93 bitrate=1066.4kbits/s speed=0.0244x elapsed=0:02:41.06    \nframe=  120 fps=0.7 q=46.6 size=     512KiB time=00:00:03.93 bitrate=1066.4kbits/s speed=0.0243x elapsed=0:02:41.63    \nframe=  122 fps=0.8 q=48.0 size=     512KiB time=00:00:04.00 bitrate=1048.7kbits/s speed=0.0247x elapsed=0:02:42.15    \nframe=  123 fps=0.8 q=43.7 size=     512KiB time=00:00:04.03 bitrate=1040.0kbits/s speed=0.0248x elapsed=0:02:42.68    \nframe=  123 fps=0.8 q=43.7 size=     512KiB time=00:00:04.03 bitrate=1040.0kbits/s speed=0.0247x elapsed=0:02:43.20    \nframe=  123 fps=0.8 q=43.7 size=     512KiB time=00:00:04.03 bitrate=1040.0kbits/s speed=0.0246x elapsed=0:02:43.72    \nframe=  123 fps=0.7 q=43.7 size=     512KiB time=00:00:04.03 bitrate=1040.0kbits/s speed=0.0246x elapsed=0:02:44.25    \nframe=  123 fps=0.7 q=43.7 size=     512KiB time=00:00:04.03 bitrate=1040.0kbits/s speed=0.0245x elapsed=0:02:44.78    \nframe=  123 fps=0.7 q=43.7 size=     512KiB time=00:00:04.03 bitrate=1040.0kbits/s speed=0.0244x elapsed=0:02:45.31    \nframe=  123 fps=0.7 q=43.7 size=     512KiB time=00:00:04.03 bitrate=1040.0kbits/s speed=0.0243x elapsed=0:02:45.86    \nframe=  124 fps=0.7 q=46.7 size=     512KiB time=00:00:04.06 bitrate=1031.5kbits/s speed=0.0244x elapsed=0:02:46.39    \nframe=  124 fps=0.7 q=46.7 size=     512KiB time=00:00:04.06 bitrate=1031.5kbits/s speed=0.0244x elapsed=0:02:46.96    \nframe=  124 fps=0.7 q=46.7 size=     512KiB time=00:00:04.06 bitrate=1031.5kbits/s speed=0.0243x elapsed=0:02:47.53    \nframe=  125 fps=0.7 q=48.0 size=     512KiB time=00:00:04.06 bitrate=1031.5kbits/s speed=0.0242x elapsed=0:02:48.06    \nframe=  126 fps=0.7 q=48.1 size=     512KiB time=00:00:04.13 bitrate=1014.8kbits/s speed=0.0245x elapsed=0:02:48.62    \nframe=  126 fps=0.7 q=48.1 size=     512KiB time=00:00:04.13 bitrate=1014.8kbits/s speed=0.0244x elapsed=0:02:49.16    \nframe=  126 fps=0.7 q=48.1 size=     512KiB time=00:00:04.13 bitrate=1014.8kbits/s speed=0.0244x elapsed=0:02:49.70    \nframe=  126 fps=0.7 q=48.1 size=     512KiB time=00:00:04.13 bitrate=1014.8kbits/s speed=0.0243x elapsed=0:02:50.25    \nframe=  127 fps=0.7 q=43.3 size=     512KiB time=00:00:04.16 bitrate=1006.7kbits/s speed=0.0244x elapsed=0:02:50.80    \nframe=  127 fps=0.7 q=43.3 size=     512KiB time=00:00:04.16 bitrate=1006.7kbits/s speed=0.0243x elapsed=0:02:51.40    \nframe=  127 fps=0.7 q=43.3 size=     512KiB time=00:00:04.16 bitrate=1006.7kbits/s speed=0.0242x elapsed=0:02:51.93    \nframe=  128 fps=0.7 q=47.0 size=     768KiB time=00:00:04.20 bitrate=1498.0kbits/s speed=0.0244x elapsed=0:02:52.45    \nframe=  128 fps=0.7 q=47.0 size=     768KiB time=00:00:04.20 bitrate=1498.0kbits/s speed=0.0243x elapsed=0:02:52.96    \nframe=  128 fps=0.7 q=47.0 size=     768KiB time=00:00:04.20 bitrate=1498.0kbits/s speed=0.0242x elapsed=0:02:53.48    \nframe=  129 fps=0.7 q=48.1 size=     768KiB time=00:00:04.23 bitrate=1486.3kbits/s speed=0.0243x elapsed=0:02:54.03    \nframe=  131 fps=0.8 q=48.0 size=     768KiB time=00:00:04.30 bitrate=1463.2kbits/s speed=0.0246x elapsed=0:02:54.55    \nframe=  131 fps=0.7 q=48.0 size=     768KiB time=00:00:04.30 bitrate=1463.2kbits/s speed=0.0246x elapsed=0:02:55.07    \nframe=  131 fps=0.7 q=48.0 size=     768KiB time=00:00:04.30 bitrate=1463.2kbits/s speed=0.0245x elapsed=0:02:55.60    \nframe=  131 fps=0.7 q=48.0 size=     768KiB time=00:00:04.30 bitrate=1463.2kbits/s speed=0.0244x elapsed=0:02:56.11    \nframe=  132 fps=0.7 q=43.5 size=     768KiB time=00:00:04.33 bitrate=1452.0kbits/s speed=0.0245x elapsed=0:02:56.64    \nframe=  132 fps=0.7 q=43.5 size=     768KiB time=00:00:04.33 bitrate=1452.0kbits/s speed=0.0245x elapsed=0:02:57.17    \nframe=  132 fps=0.7 q=43.5 size=     768KiB time=00:00:04.33 bitrate=1452.0kbits/s speed=0.0244x elapsed=0:02:57.71    \nframe=  132 fps=0.7 q=43.5 size=     768KiB time=00:00:04.33 bitrate=1452.0kbits/s speed=0.0243x elapsed=0:02:58.25    \nframe=  133 fps=0.7 q=45.9 size=     768KiB time=00:00:04.36 bitrate=1440.9kbits/s speed=0.0244x elapsed=0:02:58.78    \nframe=  135 fps=0.8 q=48.1 size=     768KiB time=00:00:04.43 bitrate=1419.2kbits/s speed=0.0247x elapsed=0:02:59.30    \nframe=  136 fps=0.8 q=48.0 size=     768KiB time=00:00:04.46 bitrate=1408.6kbits/s speed=0.0248x elapsed=0:02:59.84    \nframe=  136 fps=0.8 q=48.0 size=     768KiB time=00:00:04.46 bitrate=1408.6kbits/s speed=0.0248x elapsed=0:03:00.36    \nframe=  136 fps=0.8 q=48.0 size=     768KiB time=00:00:04.46 bitrate=1408.6kbits/s speed=0.0247x elapsed=0:03:00.90    \nframe=  136 fps=0.7 q=48.0 size=     768KiB time=00:00:04.46 bitrate=1408.6kbits/s speed=0.0246x elapsed=0:03:01.42    \nframe=  136 fps=0.7 q=48.0 size=     768KiB time=00:00:04.46 bitrate=1408.6kbits/s speed=0.0245x elapsed=0:03:01.95    \nframe=  137 fps=0.8 q=44.2 size=     768KiB time=00:00:04.50 bitrate=1398.2kbits/s speed=0.0247x elapsed=0:03:02.49    \nframe=  137 fps=0.7 q=44.2 size=     768KiB time=00:00:04.50 bitrate=1398.2kbits/s speed=0.0246x elapsed=0:03:03.01    \nframe=  137 fps=0.7 q=44.2 size=     768KiB time=00:00:04.50 bitrate=1398.2kbits/s speed=0.0245x elapsed=0:03:03.54    \nframe=  137 fps=0.7 q=44.2 size=     768KiB time=00:00:04.50 bitrate=1398.2kbits/s speed=0.0244x elapsed=0:03:04.08    \nframe=  138 fps=0.7 q=47.1 size=     768KiB time=00:00:04.53 bitrate=1387.9kbits/s speed=0.0246x elapsed=0:03:04.62    \nframe=  138 fps=0.7 q=47.1 size=     768KiB time=00:00:04.53 bitrate=1387.9kbits/s speed=0.0245x elapsed=0:03:05.17    \nframe=  138 fps=0.7 q=47.1 size=     768KiB time=00:00:04.53 bitrate=1387.9kbits/s speed=0.0244x elapsed=0:03:05.69    \nframe=  138 fps=0.7 q=47.1 size=     768KiB time=00:00:04.53 bitrate=1387.9kbits/s speed=0.0243x elapsed=0:03:06.21    \nframe=  139 fps=0.7 q=48.2 size=     768KiB time=00:00:04.56 bitrate=1377.8kbits/s speed=0.0245x elapsed=0:03:06.74    \nframe=  140 fps=0.7 q=48.1 size=     768KiB time=00:00:04.60 bitrate=1367.8kbits/s speed=0.0246x elapsed=0:03:07.28    \nframe=  141 fps=0.8 q=48.1 size=     768KiB time=00:00:04.63 bitrate=1357.9kbits/s speed=0.0247x elapsed=0:03:07.82    \nframe=  141 fps=0.7 q=48.1 size=     768KiB time=00:00:04.63 bitrate=1357.9kbits/s speed=0.0246x elapsed=0:03:08.35    \nframe=  141 fps=0.7 q=48.1 size=     768KiB time=00:00:04.63 bitrate=1357.9kbits/s speed=0.0245x elapsed=0:03:08.89    \nframe=  141 fps=0.7 q=48.1 size=     768KiB time=00:00:04.63 bitrate=1357.9kbits/s speed=0.0245x elapsed=0:03:09.40    \nframe=  141 fps=0.7 q=48.1 size=     768KiB time=00:00:04.63 bitrate=1357.9kbits/s speed=0.0244x elapsed=0:03:09.94    \nframe=  142 fps=0.7 q=44.5 size=     768KiB time=00:00:04.66 bitrate=1348.2kbits/s speed=0.0245x elapsed=0:03:10.47    \nframe=  142 fps=0.7 q=44.5 size=     768KiB time=00:00:04.66 bitrate=1348.2kbits/s speed=0.0244x elapsed=0:03:11.00    \nframe=  143 fps=0.7 q=46.7 size=     768KiB time=00:00:04.70 bitrate=1338.7kbits/s speed=0.0245x elapsed=0:03:11.52    \nframe=  144 fps=0.7 q=48.3 size=     768KiB time=00:00:04.73 bitrate=1329.3kbits/s speed=0.0246x elapsed=0:03:12.05    \nframe=  146 fps=0.8 q=48.1 size=     768KiB time=00:00:04.80 bitrate=1310.8kbits/s speed=0.0249x elapsed=0:03:12.57    \nframe=  146 fps=0.8 q=48.1 size=     768KiB time=00:00:04.80 bitrate=1310.8kbits/s speed=0.0249x elapsed=0:03:13.08    \nframe=  147 fps=0.8 q=46.1 size=     768KiB time=00:00:04.83 bitrate=1301.8kbits/s speed=0.025x elapsed=0:03:13.61    \nframe=  147 fps=0.8 q=46.1 size=     768KiB time=00:00:04.83 bitrate=1301.8kbits/s speed=0.0249x elapsed=0:03:14.15    \nframe=  147 fps=0.8 q=46.1 size=     768KiB time=00:00:04.83 bitrate=1301.8kbits/s speed=0.0248x elapsed=0:03:14.69    \nframe=  147 fps=0.8 q=46.1 size=     768KiB time=00:00:04.83 bitrate=1301.8kbits/s speed=0.0248x elapsed=0:03:15.22    \nframe=  147 fps=0.8 q=46.1 size=     768KiB time=00:00:04.83 bitrate=1301.8kbits/s speed=0.0247x elapsed=0:03:15.76    \nframe=  147 fps=0.7 q=46.1 size=     768KiB time=00:00:04.83 bitrate=1301.8kbits/s speed=0.0246x elapsed=0:03:16.28    \nframe=  148 fps=0.8 q=46.7 size=     768KiB time=00:00:04.86 bitrate=1292.8kbits/s speed=0.0247x elapsed=0:03:16.80    \n[mp4 @ 0000022525c5a980] Starting second pass: moving the moov atom to the beginning of the file\n[out#0/mp4 @ 0000022525c61700] video:913KiB audio:0KiB subtitle:0KiB other streams:0KiB global headers:2KiB muxing overhead: 0.547508%\nframe=  150 fps=0.8 q=48.1 Lsize=     918KiB time=00:00:04.93 bitrate=1524.8kbits/s speed=0.025x elapsed=0:03:17.09    \nx265 [info]: frame I:      1, Avg QP:42.96  kb/s: 6586.56 \nx265 [info]: frame P:     31, Avg QP:43.94  kb/s: 3239.28 \nx265 [info]: frame B:    118, Avg QP:47.96  kb/s: 993.96  \nx265 [info]: Weighted P-Frames: Y:0.0% UV:0.0%\n\nencoded 150 frames in 196.59s (0.76 fps), 1495.27 kb/s, Avg QP:47.10\n",
  "seconds": 197.52999258041382,
  "probe_out": {}
}